<svg width="1600" height="1200" viewBox="0 0 1600 1200" fill="none" xmlns="http://www.w3.org/2000/svg">
<g clip-path="url(#clip0_261_2120)">
<rect width="1600" height="1200" fill="#12A89D" fill-opacity="0.15"/>
<rect width="1600" height="1200" fill="url(#paint0_linear_261_2120)"/>
<g opacity="0.4" clip-path="url(#clip1_261_2120)">
<path opacity="0.3" d="M736.112 383.078C740.975 353.095 720.626 324.845 690.661 319.979C660.696 315.113 632.463 335.474 627.6 365.456C622.736 395.439 643.085 423.689 673.05 428.555C703.015 433.421 731.249 413.06 736.112 383.078Z" fill="white"/>
<path opacity="0.3" d="M533.414 388.408C583.286 388.408 623.714 347.956 623.714 298.055C623.714 248.154 583.286 207.702 533.414 207.702C483.543 207.702 443.114 248.154 443.114 298.055C443.114 347.956 483.543 388.408 533.414 388.408Z" fill="white"/>
<path opacity="0.3" d="M666.901 344.41C734.987 344.41 790.181 289.184 790.181 221.059C790.181 152.933 734.987 97.707 666.901 97.707C598.816 97.707 543.622 152.933 543.622 221.059C543.622 289.184 598.816 344.41 666.901 344.41Z" fill="white"/>
<path opacity="0.3" d="M1321.69 718.849C1281.11 783.023 1196.23 802.115 1132.1 761.511C1067.96 720.907 1048.88 635.975 1089.46 571.801C1130.04 507.627 1214.92 488.535 1279.06 529.139C1343.18 569.743 1362.27 654.674 1321.69 718.849Z" fill="white"/>
<path opacity="0.3" d="M264.791 310.296C224.211 374.47 139.329 393.562 75.1925 352.958C11.0559 312.37 -8.04065 227.423 32.5394 163.264C73.1195 99.09 158.002 79.998 222.138 120.602C286.275 161.19 305.371 246.122 264.791 310.296Z" fill="white"/>
<path opacity="0.3" d="M934.221 290.968C918.187 316.33 884.642 323.872 859.311 307.829C833.964 291.785 826.426 258.221 842.461 232.875C858.495 207.513 892.039 199.971 917.37 216.015C942.717 232.058 950.255 265.607 934.221 290.968Z" fill="white"/>
<path opacity="0.3" d="M474.083 693.236C458.049 718.597 424.505 726.14 399.174 710.096C373.827 694.053 366.289 660.489 382.323 635.143C398.357 609.781 431.901 602.238 457.233 618.282C482.579 634.325 490.117 667.874 474.083 693.236Z" fill="white"/>
<path opacity="0.2" d="M1318.98 363.251C1302.94 388.612 1269.4 396.155 1244.07 380.111C1218.72 364.068 1211.18 330.504 1227.22 305.158C1243.25 279.796 1276.8 272.253 1302.13 288.297C1327.47 304.341 1335.01 337.889 1318.98 363.251Z" fill="white"/>
<path opacity="0.3" d="M346.878 155.832C330.844 181.193 297.299 188.736 271.968 172.692C246.621 156.649 239.083 123.084 255.117 97.7385C271.152 72.3768 304.696 64.8342 330.027 80.8778C355.374 96.9214 362.912 130.47 346.878 155.832Z" fill="white"/>
<path opacity="0.3" d="M332.383 361.286C307.444 400.728 255.259 412.466 215.841 387.512C176.423 362.559 164.692 310.343 189.63 270.902C214.569 231.461 266.754 219.723 306.172 244.676C345.59 269.645 357.321 321.845 332.383 361.286Z" fill="white"/>
<path opacity="0.3" d="M583.291 483.79C572.895 500.226 551.145 505.129 534.702 494.726C518.275 484.324 513.376 462.561 523.772 446.108C534.168 429.672 555.919 424.769 572.361 435.172C588.788 445.59 593.688 467.353 583.291 483.79Z" fill="white"/>
<path opacity="0.3" d="M1225.6 447.648C1215.2 464.085 1193.45 468.987 1177.01 458.585C1160.58 448.182 1155.68 426.419 1166.08 409.967C1176.48 393.531 1198.23 388.628 1214.67 399.03C1231.1 409.449 1236 431.212 1225.6 447.648Z" fill="white"/>
<path opacity="0.3" d="M858.118 574.928C847.721 591.365 825.971 596.267 809.528 585.865C793.102 575.462 788.202 553.699 798.598 537.247C808.995 520.811 830.745 515.908 847.188 526.31C863.614 536.729 868.514 558.492 858.118 574.928Z" fill="white"/>
<path opacity="0.3" d="M255.07 529.359C244.674 545.795 222.923 550.698 206.481 540.296C190.054 529.893 185.154 508.13 195.551 491.678C205.947 475.241 227.698 470.339 244.14 480.741C260.567 491.159 265.467 512.922 255.07 529.359Z" fill="white"/>
<path opacity="0.3" d="M156.306 526.436C180.851 566.128 168.586 618.219 128.917 642.764C89.2479 667.324 37.188 655.052 12.6577 615.359C-11.8882 575.667 0.376936 523.576 40.0462 499.031C79.6997 474.471 131.76 486.743 156.306 526.436Z" fill="white"/>
<path opacity="0.3" d="M322.238 482.501C332.477 499.047 327.357 520.763 310.821 531.009C294.284 541.254 272.581 536.131 262.341 519.585C252.102 503.039 257.222 481.322 273.758 471.077C290.311 460.848 312.014 465.955 322.238 482.501Z" fill="white"/>
<path opacity="0.3" d="M289.777 560.786C313.129 598.546 301.461 648.091 263.723 671.441C225.986 694.807 176.47 683.132 153.133 645.372C129.781 607.612 141.449 558.068 179.187 534.717C216.909 511.367 266.425 523.026 289.777 560.786Z" fill="white"/>
<path opacity="0.6" d="M1296.29 205.392C1257.01 267.508 1174.84 285.987 1112.76 246.687C1050.7 207.388 1032.22 125.174 1071.49 63.0585C1110.77 0.942771 1192.93 -17.5364 1255.01 21.7632C1317.08 61.0629 1335.56 143.276 1296.29 205.392Z" fill="white"/>
<path opacity="0.6" d="M580.92 1045.03C567.807 1065.77 540.371 1071.93 519.657 1058.81C498.928 1045.69 492.771 1018.24 505.885 997.513C518.998 976.771 546.433 970.612 567.147 983.717C587.861 996.838 594.033 1024.29 580.92 1045.03Z" fill="white"/>
<path opacity="0.6" d="M1138.33 495.622C1121.21 522.681 1085.42 530.742 1058.38 513.614C1031.34 496.486 1023.28 460.675 1040.4 433.616C1057.52 406.557 1093.31 398.496 1120.35 415.624C1147.39 432.752 1155.43 468.563 1138.33 495.622Z" fill="white"/>
<path opacity="0.3" d="M1180.54 301.622C1173.37 312.967 1158.37 316.346 1147.03 309.164C1135.69 301.983 1132.32 286.977 1139.49 275.632C1146.67 264.287 1161.67 260.908 1173.01 268.089C1184.34 275.27 1187.72 290.292 1180.54 301.622Z" fill="white"/>
<path opacity="0.2" d="M1121.18 115.59C1133.73 65.907 1103.65 15.4532 1053.99 2.898C1004.34 -9.65721 953.913 20.4406 941.366 70.1234C928.818 119.806 958.898 170.26 1008.55 182.815C1058.21 195.37 1108.63 165.273 1121.18 115.59Z" fill="white"/>
<path opacity="0.3" d="M1037.38 291.408C1045.53 273.746 1066.45 266.015 1084.1 274.17C1101.77 282.326 1109.48 303.256 1101.33 320.918C1093.18 338.58 1072.26 346.311 1054.61 338.156C1036.94 330.016 1029.23 309.086 1037.38 291.408Z" fill="white"/>
<path opacity="0.15" d="M1193.33 269.912C1224.08 203.208 1303.05 174.075 1369.7 204.842C1436.37 235.609 1465.48 314.617 1434.73 381.321C1403.99 448.025 1325.02 477.158 1258.36 446.391C1191.71 415.624 1162.59 336.616 1193.33 269.912Z" fill="white"/>
<path opacity="0.3" d="M1117.59 232.357C1131 203.271 1165.42 190.574 1194.47 203.994C1223.53 217.413 1236.23 251.857 1222.82 280.927C1209.41 310.013 1174.98 322.71 1145.93 309.29C1116.88 295.887 1104.17 261.442 1117.59 232.357Z" fill="white"/>
<path opacity="0.3" d="M250.814 1236.77C271.104 1192.77 323.196 1173.55 367.168 1193.84C411.14 1214.12 430.347 1266.25 410.072 1310.26C389.782 1354.26 337.691 1373.48 293.719 1353.19C249.731 1332.89 230.524 1280.77 250.814 1236.77Z" fill="white"/>
<path opacity="0.3" d="M1101.25 430.237C1106.87 418.059 1121.29 412.733 1133.48 418.342C1145.65 423.968 1150.97 438.393 1145.37 450.587C1139.74 462.78 1125.33 468.092 1113.14 462.482C1100.95 456.856 1095.63 442.415 1101.25 430.237Z" fill="white"/>
<path opacity="0.3" d="M504.487 1076.07C510.109 1063.89 524.526 1058.56 536.712 1064.19C548.883 1069.81 554.207 1084.24 548.6 1096.43C542.978 1108.62 528.562 1113.94 516.375 1108.33C504.189 1102.68 498.865 1088.24 504.487 1076.07Z" fill="white"/>
<path opacity="0.3" d="M945.905 456.558C931.284 479.688 900.677 486.571 877.56 471.941C854.443 457.312 847.564 426.686 862.185 403.556C876.806 380.426 907.414 373.543 930.531 388.172C953.647 402.817 960.526 433.427 945.905 456.558Z" fill="white"/>
<path opacity="0.3" d="M1013.89 651.28C973.309 715.455 888.427 734.547 824.291 693.943C760.154 653.339 741.073 568.407 781.653 504.233C822.233 440.059 907.115 420.966 971.252 461.57C1035.37 502.174 1054.47 587.106 1013.89 651.28Z" fill="white"/>
<path opacity="0.3" d="M467.99 168.151C442.549 208.362 389.358 220.336 349.171 194.895C308.983 169.455 297.017 116.218 322.442 76.0065C347.867 35.7955 401.074 23.8217 441.261 49.262C481.464 74.7023 493.431 127.924 467.99 168.151Z" fill="white"/>
<path opacity="0.3" d="M947.617 309.259C936.231 327.267 912.408 332.625 894.411 321.233C876.413 309.84 871.058 286.003 882.444 267.995C893.829 249.987 917.653 244.629 935.65 256.021C953.647 267.414 959.018 291.251 947.617 309.259Z" fill="white"/>
<path opacity="0.3" d="M405.816 570.104C394.431 588.112 370.607 593.47 352.61 582.078C334.613 570.686 329.258 546.848 340.643 528.84C352.029 510.833 375.852 505.474 393.85 516.867C411.847 528.259 417.218 552.096 405.816 570.104Z" fill="white"/>
<path opacity="0.3" d="M300.519 762.344C293.169 773.972 277.794 777.429 266.173 770.075C254.552 762.721 251.097 747.338 258.447 735.71C265.796 724.081 281.171 720.624 292.792 727.978C304.413 735.332 307.868 750.716 300.519 762.344Z" fill="white"/>
<path opacity="0.6" d="M629.509 550.619C612.392 577.678 576.601 585.739 549.558 568.611C522.516 551.484 514.459 515.672 531.577 488.614C548.695 461.555 584.485 453.494 611.528 470.622C638.571 487.749 646.611 523.561 629.509 550.619Z" fill="white"/>
<path opacity="0.3" d="M528.562 346.406C536.712 328.744 557.631 321.013 575.282 329.168C592.95 337.323 600.66 358.254 592.51 375.916C584.359 393.578 563.441 401.309 545.789 393.154C528.122 385.014 520.411 364.083 528.562 346.406Z" fill="white"/>
<path opacity="0.3" d="M635.461 284.211C648.873 255.126 683.297 242.429 712.35 255.848C741.403 269.268 754.108 303.712 740.696 332.782C727.285 361.868 692.861 374.564 663.808 361.145C634.755 347.741 622.05 313.297 635.461 284.211Z" fill="white"/>
<path opacity="0.3" d="M592.431 485.235C598.054 473.057 612.47 467.73 624.657 473.34C636.828 478.965 642.151 493.39 636.545 505.584C630.923 517.778 616.506 523.089 604.32 517.479C592.133 511.854 586.809 497.413 592.431 485.235Z" fill="white"/>
<path opacity="0.3" d="M1287.15 1006.41C1246.57 1070.58 1161.68 1089.67 1097.55 1049.07C1033.41 1008.47 1014.33 923.534 1054.91 859.359C1095.49 795.185 1180.37 776.093 1244.51 816.697C1308.63 857.301 1327.73 942.233 1287.15 1006.41Z" fill="white"/>
<path opacity="0.3" d="M1230.66 1342.3C1164.26 1447.28 1025.38 1478.54 920.448 1412.12C815.527 1345.68 784.291 1206.72 850.674 1101.73C917.072 996.743 1055.95 965.489 1160.88 1031.91C1265.82 1098.35 1297.05 1237.32 1230.66 1342.3Z" fill="white"/>
</g>
<g opacity="0.8">
<path d="M258.951 1069.03L274.496 935.277L136.266 1070.49L258.951 1069.03Z" stroke="white" stroke-width="0.5" stroke-miterlimit="10"/>
<path d="M274.496 935.277L232.196 820.878L136.266 1070.49L274.496 935.277Z" stroke="white" stroke-width="0.5" stroke-miterlimit="10"/>
<path d="M800.123 1200.65L902.875 1127.38L943.793 1200.65H800.123Z" stroke="white" stroke-width="0.5" stroke-miterlimit="10"/>
<path d="M787.653 1200.65L752.141 1099.65L902.875 1127.37L800.123 1200.65H787.653Z" stroke="white" stroke-width="0.5" stroke-miterlimit="10"/>
<path d="M474.49 1141.34L398.942 996.382L343.826 1109.74L474.49 1141.34Z" stroke="white" stroke-width="0.5" stroke-miterlimit="10"/>
<path d="M258.951 1069.04L274.496 935.277L343.826 1109.74L258.951 1069.04Z" stroke="white" stroke-width="0.5" stroke-miterlimit="10"/>
<path d="M398.942 996.382L274.496 935.277L343.826 1109.74L398.942 996.382Z" stroke="white" stroke-width="0.5" stroke-miterlimit="10"/>
<path d="M41.8217 665.824L113.294 463.907L3.11475 580.604L41.8217 665.824Z" stroke="white" stroke-width="0.5" stroke-miterlimit="10"/>
<path d="M0.144043 465.567L113.294 463.907L3.11486 580.604L0.144043 572.082V465.567Z" stroke="white" stroke-width="0.5" stroke-miterlimit="10"/>
<path d="M752.141 1099.65L749.101 981.897L674.951 1000.27L752.141 1099.65Z" stroke="white" stroke-width="0.5" stroke-miterlimit="10"/>
<path d="M749.101 981.897L674.952 1000.27L671.238 905.13L749.101 981.897Z" stroke="white" stroke-width="0.5" stroke-miterlimit="10"/>
<path d="M474.49 1141.34L398.942 996.382L503.888 954.015L474.49 1141.34Z" stroke="white" stroke-width="0.5" stroke-miterlimit="10"/>
<path d="M463.298 1200.65L474.49 1141.34L552.457 1200.65H463.298Z" stroke="white" stroke-width="0.5" stroke-miterlimit="10"/>
<path d="M41.8218 665.824L113.294 463.907L180.017 640.88L41.8218 665.824Z" stroke="white" stroke-width="0.5" stroke-miterlimit="10"/>
<path d="M503.888 954.014L398.942 996.382L401.498 832.581L503.888 954.014Z" stroke="white" stroke-width="0.5" stroke-miterlimit="10"/>
<path d="M398.942 996.382L274.496 935.276L401.498 832.581L398.942 996.382Z" stroke="white" stroke-width="0.5" stroke-miterlimit="10"/>
<path d="M274.496 935.277L232.196 820.878L401.498 832.581L274.496 935.277Z" stroke="white" stroke-width="0.5" stroke-miterlimit="10"/>
<path d="M520.728 775.295L398.942 679.652L401.498 832.581L520.728 775.295Z" stroke="white" stroke-width="0.5" stroke-miterlimit="10"/>
<path d="M0.144043 572.083L3.11483 580.604L0.144043 578.824V572.083Z" stroke="white" stroke-width="0.5" stroke-miterlimit="10"/>
<path d="M777.048 1200.65L599.869 1104.52L752.141 1099.65L787.653 1200.65H777.048Z" stroke="white" stroke-width="0.5" stroke-miterlimit="10"/>
<path d="M578.175 1200.65L599.869 1104.52L777.047 1200.65H578.175Z" stroke="white" stroke-width="0.5" stroke-miterlimit="10"/>
<path d="M752.141 1099.65L674.952 1000.27L599.869 1104.52L752.141 1099.65Z" stroke="white" stroke-width="0.5" stroke-miterlimit="10"/>
<path d="M552.457 1200.65L474.49 1141.34L599.869 1104.52L578.175 1200.65H552.457Z" stroke="white" stroke-width="0.5" stroke-miterlimit="10"/>
<path d="M474.49 1141.34L503.888 954.015L599.869 1104.52L474.49 1141.34Z" stroke="white" stroke-width="0.5" stroke-miterlimit="10"/>
<path d="M969.874 1200.65L1112.91 1045.87L1089.57 1200.65H969.874Z" stroke="white" stroke-width="0.5" stroke-miterlimit="10"/>
<path d="M943.793 1200.65L902.875 1127.38L1112.91 1045.87L969.874 1200.65H943.793Z" stroke="white" stroke-width="0.5" stroke-miterlimit="10"/>
<path d="M0.144043 292.258L0.368537 291.186L113.294 463.907L0.144043 465.567V292.258Z" stroke="white" stroke-width="0.5" stroke-miterlimit="10"/>
<path d="M902.875 1127.37L752.141 1099.65L868.97 967.446L902.875 1127.37Z" stroke="white" stroke-width="0.5" stroke-miterlimit="10"/>
<path d="M752.141 1099.65L749.101 981.897L868.97 967.446L752.141 1099.65Z" stroke="white" stroke-width="0.5" stroke-miterlimit="10"/>
<path d="M599.869 1104.52L674.952 1000.27L562.855 880.031L599.869 1104.52Z" stroke="white" stroke-width="0.5" stroke-miterlimit="10"/>
<path d="M599.869 1104.52L503.888 954.014L562.855 880.031L599.869 1104.52Z" stroke="white" stroke-width="0.5" stroke-miterlimit="10"/>
<path d="M674.952 1000.27L671.238 905.13L562.855 880.031L674.952 1000.27Z" stroke="white" stroke-width="0.5" stroke-miterlimit="10"/>
<path d="M671.238 905.13L697.768 834.05L562.855 880.031L671.238 905.13Z" stroke="white" stroke-width="0.5" stroke-miterlimit="10"/>
<path d="M697.768 834.05L520.728 775.296L562.855 880.031L697.768 834.05Z" stroke="white" stroke-width="0.5" stroke-miterlimit="10"/>
<path d="M503.888 954.015L401.498 832.581L562.855 880.031L503.888 954.015Z" stroke="white" stroke-width="0.5" stroke-miterlimit="10"/>
<path d="M520.728 775.296L401.498 832.581L562.855 880.031L520.728 775.296Z" stroke="white" stroke-width="0.5" stroke-miterlimit="10"/>
<path d="M401.498 832.581L232.196 820.878L278.762 731.493L401.498 832.581Z" stroke="white" stroke-width="0.5" stroke-miterlimit="10"/>
<path d="M401.498 832.581L398.942 679.652L278.762 731.493L401.498 832.581Z" stroke="white" stroke-width="0.5" stroke-miterlimit="10"/>
<path d="M232.196 820.878L180.017 640.88L278.762 731.493L232.196 820.878Z" stroke="white" stroke-width="0.5" stroke-miterlimit="10"/>
<path d="M902.875 1127.38L868.97 967.446L1047.77 919.737L902.875 1127.38Z" stroke="white" stroke-width="0.5" stroke-miterlimit="10"/>
<path d="M1112.91 1045.87L902.875 1127.38L1047.77 919.737L1112.91 1045.87Z" stroke="white" stroke-width="0.5" stroke-miterlimit="10"/>
<path d="M338.126 250.305L113.294 463.907L132.984 279.899L338.126 250.305Z" stroke="white" stroke-width="0.5" stroke-miterlimit="10"/>
<path d="M113.294 463.907L0.36853 291.186L132.984 279.899L113.294 463.907Z" stroke="white" stroke-width="0.5" stroke-miterlimit="10"/>
<path d="M0.36853 291.186L135.955 136.858L132.984 279.899L0.36853 291.186Z" stroke="white" stroke-width="0.5" stroke-miterlimit="10"/>
<path d="M135.955 136.858L338.126 250.305L132.984 279.899L135.955 136.858Z" stroke="white" stroke-width="0.5" stroke-miterlimit="10"/>
<path d="M0.144043 161.801L135.955 136.858L0.368537 291.186L0.144043 291.013V161.801Z" stroke="white" stroke-width="0.5" stroke-miterlimit="10"/>
<path d="M398.942 679.653L278.762 731.493L211.003 496.335L398.942 679.653Z" stroke="white" stroke-width="0.5" stroke-miterlimit="10"/>
<path d="M398.942 679.653L404.434 533.293L211.003 496.335L398.942 679.653Z" stroke="white" stroke-width="0.5" stroke-miterlimit="10"/>
<path d="M278.762 731.493L180.017 640.88L211.003 496.335L278.762 731.493Z" stroke="white" stroke-width="0.5" stroke-miterlimit="10"/>
<path d="M337.073 251.308L113.294 463.907L211.003 496.336L337.073 251.308Z" stroke="white" stroke-width="0.5" stroke-miterlimit="10"/>
<path d="M180.017 640.88L113.294 463.907L211.003 496.336L180.017 640.88Z" stroke="white" stroke-width="0.5" stroke-miterlimit="10"/>
<path d="M0.144043 87.904L125.661 -2L135.955 136.858L0.144043 161.801V87.904Z" stroke="white" stroke-width="0.5" stroke-miterlimit="10"/>
<path d="M0.144043 1200.65V1165.58L6.32746 1152.47L105.522 1200.65H0.144043Z" stroke="white" stroke-width="0.5" stroke-miterlimit="10"/>
<path d="M105.522 1200.65L6.32751 1152.47L136.266 1070.49L131.948 1200.65H105.522Z" stroke="white" stroke-width="0.5" stroke-miterlimit="10"/>
<path d="M0.144043 1152.41L6.32749 1152.47L0.144043 1165.58V1152.41Z" stroke="white" stroke-width="0.5" stroke-miterlimit="10"/>
<path d="M0.144043 1148.34L6.32749 1152.47L0.144043 1152.4V1148.34Z" stroke="white" stroke-width="0.5" stroke-miterlimit="10"/>
<path d="M136.266 1070.49L6.32751 1152.47L36.3639 870.039L136.266 1070.49Z" stroke="white" stroke-width="0.5" stroke-miterlimit="10"/>
<path d="M136.266 1070.49L232.196 820.878L36.3638 870.04L136.266 1070.49Z" stroke="white" stroke-width="0.5" stroke-miterlimit="10"/>
<path d="M0.144043 915.207L36.3639 870.039L6.32747 1152.47L0.144043 1148.34V915.207Z" stroke="white" stroke-width="0.5" stroke-miterlimit="10"/>
<path d="M232.196 820.878L180.017 640.88L36.3638 870.04L232.196 820.878Z" stroke="white" stroke-width="0.5" stroke-miterlimit="10"/>
<path d="M0.144043 890.402L36.3639 870.039L0.144043 915.208V890.402Z" stroke="white" stroke-width="0.5" stroke-miterlimit="10"/>
<path d="M0.144043 862.036L36.3639 870.039L0.144043 890.402V862.036Z" stroke="white" stroke-width="0.5" stroke-miterlimit="10"/>
<path d="M180.017 640.88L41.8217 665.824L36.3638 870.04L180.017 640.88Z" stroke="white" stroke-width="0.5" stroke-miterlimit="10"/>
<path d="M41.8217 665.824L3.11475 580.604L36.3637 870.04L41.8217 665.824Z" stroke="white" stroke-width="0.5" stroke-miterlimit="10"/>
<path d="M0.144043 585.047L3.11486 580.604L36.3639 870.04L0.144043 862.036V585.047Z" stroke="white" stroke-width="0.5" stroke-miterlimit="10"/>
<path d="M302.183 1200.65L268.848 1190.87L474.491 1141.34L463.298 1200.65H302.183Z" stroke="white" stroke-width="0.5" stroke-miterlimit="10"/>
<path d="M270.402 1200.65L268.848 1190.87L302.183 1200.65H270.402Z" stroke="white" stroke-width="0.5" stroke-miterlimit="10"/>
<path d="M474.491 1141.34L343.826 1109.74L268.848 1190.87L474.491 1141.34Z" stroke="white" stroke-width="0.5" stroke-miterlimit="10"/>
<path d="M208.913 1200.65L268.848 1190.87L270.402 1200.65H208.913Z" stroke="white" stroke-width="0.5" stroke-miterlimit="10"/>
<path d="M343.826 1109.74L258.951 1069.04L268.848 1190.87L343.826 1109.74Z" stroke="white" stroke-width="0.5" stroke-miterlimit="10"/>
<path d="M258.951 1069.04L136.266 1070.49L268.848 1190.87L258.951 1069.04Z" stroke="white" stroke-width="0.5" stroke-miterlimit="10"/>
<path d="M131.948 1200.65L136.266 1070.49L268.848 1190.87L208.913 1200.65H131.948Z" stroke="white" stroke-width="0.5" stroke-miterlimit="10"/>
<path d="M1163.94 1200.65L1293.64 1152.02L1249.03 1200.65H1163.94Z" stroke="white" stroke-width="0.5" stroke-miterlimit="10"/>
<path d="M1112.91 1045.87L1293.64 1152.02L1332.52 1026.51L1443.06 1141.88L1293.64 1152.02" stroke="white" stroke-width="0.5" stroke-miterlimit="10"/>
<path d="M1332.52 1026.51L1408.52 911.284" stroke="white" stroke-width="0.5" stroke-miterlimit="10"/>
<path d="M354.577 578.659C354.577 581.768 357.085 584.278 360.191 584.278C363.298 584.278 365.806 581.768 365.806 578.659C365.806 575.549 363.298 573.039 360.191 573.039C357.101 573.039 354.577 575.549 354.577 578.659Z" fill="white"/>
<path d="M461.372 800.515C461.372 803.624 463.88 806.134 466.986 806.134C470.093 806.134 472.601 803.624 472.601 800.515C472.601 797.406 470.093 794.896 466.986 794.896C463.896 794.896 461.372 797.406 461.372 800.515Z" fill="white"/>
<path d="M238.073 952.738C238.073 955.847 240.581 958.357 243.688 958.357C246.795 958.357 249.303 955.847 249.303 952.738C249.303 949.628 246.795 947.118 243.688 947.118C240.597 947.118 238.073 949.628 238.073 952.738Z" fill="white"/>
<path d="M610.237 1014.27C610.237 1017.38 612.745 1019.89 615.852 1019.89C618.959 1019.89 621.467 1017.38 621.467 1014.27C621.467 1011.17 618.959 1008.66 615.852 1008.66C612.761 1008.66 610.237 1011.17 610.237 1014.27Z" fill="white"/>
<path d="M215.42 73.4093C215.42 76.5186 217.928 79.0286 221.035 79.0286C224.141 79.0286 226.649 76.5186 226.649 73.4093C226.649 70.3001 224.141 67.79 221.035 67.79C217.944 67.79 215.42 70.3001 215.42 73.4093Z" fill="white"/>
<path d="M448.427 656.389C448.427 659.498 450.935 662.009 454.042 662.009C457.148 662.009 459.656 659.498 459.656 656.389C459.656 653.28 457.148 650.77 454.042 650.77C450.951 650.77 448.427 653.28 448.427 656.389Z" fill="white"/>
<path d="M958.13 939.782C958.13 942.892 960.638 945.402 963.744 945.402C966.851 945.402 969.359 942.892 969.359 939.782C969.359 936.673 966.851 934.163 963.744 934.163C960.654 934.163 958.13 936.673 958.13 939.782Z" fill="white"/>
<path d="M907.968 823.186C907.968 826.296 910.476 828.806 913.583 828.806C916.69 828.806 919.198 826.296 919.198 823.186C919.198 820.077 916.69 817.567 913.583 817.567C910.493 817.567 907.968 820.077 907.968 823.186Z" fill="white"/>
<path d="M736.449 819.948C736.449 823.057 738.957 825.567 742.064 825.567C745.171 825.567 747.679 823.057 747.679 819.948C747.679 816.838 745.171 814.328 742.064 814.328C738.974 814.328 736.449 816.838 736.449 819.948Z" fill="white"/>
<path d="M814.118 651.531C814.118 654.64 816.626 657.15 819.733 657.15C822.84 657.15 825.348 654.64 825.348 651.531C825.348 648.422 822.84 645.912 819.733 645.912C816.643 645.912 814.118 648.422 814.118 651.531Z" fill="white"/>
<path d="M600.529 734.12C600.529 737.229 603.037 739.739 606.143 739.739C609.25 739.739 611.758 737.229 611.758 734.12C611.758 731.011 609.25 728.501 606.143 728.501C603.053 728.501 600.529 731.011 600.529 734.12Z" fill="white"/>
<path d="M501.824 547.89C501.824 551 504.332 553.51 507.439 553.51C510.546 553.51 513.054 551 513.054 547.89C513.054 544.781 510.546 542.271 507.439 542.271C504.348 542.271 501.824 544.781 501.824 547.89Z" fill="white"/>
<path d="M294.707 309.84C294.707 312.949 297.215 315.459 300.322 315.459C303.428 315.459 305.936 312.949 305.936 309.84C305.936 306.731 303.428 304.221 300.322 304.221C297.231 304.221 294.707 306.731 294.707 309.84Z" fill="white"/>
<path d="M174.967 539.793C174.967 542.903 177.475 545.413 180.582 545.413C183.689 545.413 186.197 542.903 186.197 539.793C186.197 536.684 183.689 534.174 180.582 534.174C177.491 534.174 174.967 536.684 174.967 539.793Z" fill="white"/>
<path d="M82.7351 510.644C82.7351 513.754 85.2432 516.264 88.3499 516.264C91.4567 516.264 93.9648 513.754 93.9648 510.644C93.9648 507.535 91.4567 505.025 88.3499 505.025C85.2594 505.025 82.7351 507.535 82.7351 510.644Z" fill="white"/>
<path d="M373.994 390.809C373.994 393.919 376.502 396.429 379.609 396.429C382.716 396.429 385.224 393.919 385.224 390.809C385.224 387.7 382.716 385.19 379.609 385.19C376.518 385.19 373.994 387.7 373.994 390.809Z" fill="white"/>
<path d="M351.34 713.068C351.34 716.177 353.849 718.687 356.955 718.687C360.062 718.687 362.57 716.177 362.57 713.068C362.57 709.959 360.062 707.449 356.955 707.449C353.865 707.449 351.34 709.959 351.34 713.068Z" fill="white"/>
<path d="M631.273 857.193C631.273 860.303 633.781 862.813 636.887 862.813C639.994 862.813 642.502 860.303 642.502 857.193C642.502 854.084 639.994 851.574 636.887 851.574C633.797 851.574 631.273 854.084 631.273 857.193Z" fill="white"/>
<path d="M450.045 968.931C450.045 972.04 452.553 974.551 455.66 974.551C458.766 974.551 461.274 972.04 461.274 968.931C461.274 965.822 458.766 963.312 455.66 963.312C452.569 963.312 450.045 965.822 450.045 968.931Z" fill="white"/>
<path d="M147.459 675.822C147.459 678.931 149.967 681.441 153.074 681.441C156.181 681.441 158.689 678.931 158.689 675.822C158.689 672.713 156.181 670.203 153.074 670.203C149.984 670.203 147.459 672.713 147.459 675.822Z" fill="white"/>
<path d="M103.771 337.37C103.771 340.479 106.279 342.989 109.385 342.989C112.492 342.989 115 340.479 115 337.37C115 334.261 112.492 331.75 109.385 331.75C106.295 331.75 103.771 334.261 103.771 337.37Z" fill="white"/>
<path d="M823.827 1132.49C823.827 1135.6 826.335 1138.11 829.442 1138.11C832.549 1138.11 835.057 1135.6 835.057 1132.49C835.057 1129.38 832.549 1126.87 829.442 1126.87C826.351 1126.87 823.827 1129.38 823.827 1132.49Z" fill="white"/>
<path d="M13.1566 891.201C13.1566 894.31 15.6647 896.82 18.7714 896.82C21.8782 896.82 24.3863 894.31 24.3863 891.201C24.3863 888.092 21.8782 885.582 18.7714 885.582C15.6809 885.582 13.1566 888.092 13.1566 891.201Z" fill="white"/>
<path d="M468.103 800.499L454.786 656.422L606.143 734.606L507.876 547.971" stroke="white" stroke-width="0.5" stroke-miterlimit="10"/>
<path d="M962.628 940.624L914.668 824.028L740.996 821.599L606.143 735.415L818.908 652.648L743.148 821.599" stroke="white" stroke-width="0.5" stroke-miterlimit="10"/>
<path d="M797.08 985.044L743.148 821.599L635.739 858.117L606.143 734.606" stroke="white" stroke-width="0.5" stroke-miterlimit="10"/>
<path opacity="0.7" d="M454.786 656.422L360.192 578.659L379.609 390.81L180.582 539.793" stroke="white" stroke-width="0.5" stroke-miterlimit="10"/>
<path d="M1144.97 814.037L914.667 821.599L1015.52 601.362L1144.97 814.037Z" stroke="white" stroke-width="0.5" stroke-miterlimit="10"/>
<path d="M506.371 550.627L454.786 656.422" stroke="white" stroke-width="0.5" stroke-miterlimit="10"/>
<path d="M430.822 952.981C433.929 952.981 436.437 950.471 436.437 947.361C436.437 944.252 433.929 941.742 430.822 941.742C427.715 941.742 425.207 944.252 425.207 947.361C425.207 950.471 427.731 952.981 430.822 952.981Z" fill="white"/>
<path d="M298.137 957.839C301.244 957.839 303.752 955.329 303.752 952.219C303.752 949.11 301.244 946.6 298.137 946.6C295.031 946.6 292.522 949.11 292.522 952.219C292.522 955.329 295.047 957.839 298.137 957.839Z" fill="white"/>
<path d="M21.6679 1214.58L-16.3737 869.469L-94.9165 1117.56L21.6679 1214.58Z" stroke="white" stroke-width="0.5" stroke-miterlimit="10"/>
<path d="M1364.02 1346.15L1276.57 1176.46L1181.33 1255.61L1364.02 1346.15Z" stroke="white" stroke-width="0.5" stroke-miterlimit="10"/>
<path d="M1276.57 1176.46L1181.33 1255.61L1108.84 1119.39L1276.57 1176.46Z" stroke="white" stroke-width="0.5" stroke-miterlimit="10"/>
<path d="M21.6679 1214.58L-16.3738 869.469L205.727 1080.64L21.6679 1214.58Z" stroke="white" stroke-width="0.5" stroke-miterlimit="10"/>
<path d="M797.678 1036.2L552.536 982.615L664.088 1203.99L797.678 1036.2Z" stroke="white" stroke-width="0.5" stroke-miterlimit="10"/>
<path d="M1603.53 1280.16L1364.02 1346.15L1441.33 1070.73L1603.53 1280.16Z" stroke="white" stroke-width="0.5" stroke-miterlimit="10"/>
<path d="M1364.02 1346.15L1276.57 1176.46L1441.33 1070.73L1364.02 1346.15Z" stroke="white" stroke-width="0.5" stroke-miterlimit="10"/>
<path d="M1145.25 1460.76L1181.33 1255.61L932.984 1159.31L1145.25 1460.76Z" stroke="white" stroke-width="0.5" stroke-miterlimit="10"/>
<path d="M1145.25 1460.76L899.085 1308.87L932.984 1159.31L1145.25 1460.76Z" stroke="white" stroke-width="0.5" stroke-miterlimit="10"/>
<path d="M1181.33 1255.61L1108.84 1119.39L932.984 1159.31L1181.33 1255.61Z" stroke="white" stroke-width="0.5" stroke-miterlimit="10"/>
<path d="M1108.84 1119.39L1097.45 996.947L932.984 1159.31L1108.84 1119.39Z" stroke="white" stroke-width="0.5" stroke-miterlimit="10"/>
<path d="M1097.45 996.947L797.678 1036.2L932.984 1159.31L1097.45 996.947Z" stroke="white" stroke-width="0.5" stroke-miterlimit="10"/>
<path d="M899.085 1308.87L664.088 1203.99L932.984 1159.31L899.085 1308.87Z" stroke="white" stroke-width="0.5" stroke-miterlimit="10"/>
<path d="M797.678 1036.2L664.088 1203.99L932.984 1159.31L797.678 1036.2Z" stroke="white" stroke-width="0.5" stroke-miterlimit="10"/>
<path d="M664.088 1203.99L408.751 1306.43L413.702 1143.15L664.088 1203.99Z" stroke="white" stroke-width="0.5" stroke-miterlimit="10"/>
<path d="M664.088 1203.99L552.536 982.615L413.702 1143.15L664.088 1203.99Z" stroke="white" stroke-width="0.5" stroke-miterlimit="10"/>
<path d="M408.751 1306.43L205.727 1080.64L413.702 1143.15L408.751 1306.43Z" stroke="white" stroke-width="0.5" stroke-miterlimit="10"/>
<path d="M1603.53 1280.16L1441.33 1070.73L1668.61 874.877L1603.53 1280.16Z" stroke="white" stroke-width="0.5" stroke-miterlimit="10"/>
<path d="M161.132 399.036L-16.3737 869.468L-117.36 587.063L161.132 399.036Z" stroke="white" stroke-width="0.5" stroke-miterlimit="10"/>
<path d="M-213.863 376.219L161.132 399.036L-117.36 587.063L-213.863 376.219Z" stroke="white" stroke-width="0.5" stroke-miterlimit="10"/>
<path d="M552.536 982.615L413.702 1143.15L149.061 847.817L552.536 982.615Z" stroke="white" stroke-width="0.5" stroke-miterlimit="10"/>
<path d="M552.536 982.615L457.375 765.164L149.061 847.817L552.536 982.615Z" stroke="white" stroke-width="0.5" stroke-miterlimit="10"/>
<path d="M413.702 1143.15L205.727 1080.64L149.061 847.817L413.702 1143.15Z" stroke="white" stroke-width="0.5" stroke-miterlimit="10"/>
<path d="M160.307 401.222L-16.3738 869.469L149.061 847.817L160.307 401.222Z" stroke="white" stroke-width="0.5" stroke-miterlimit="10"/>
<path d="M205.727 1080.64L-16.3738 869.469L149.061 847.817L205.727 1080.64Z" stroke="white" stroke-width="0.5" stroke-miterlimit="10"/>
<path d="M408.751 1306.43L205.727 1080.64L157.653 1516.46L408.751 1306.43Z" stroke="white" stroke-width="0.5" stroke-miterlimit="10"/>
<path d="M205.727 1080.64L21.668 1214.58L157.653 1516.46L205.727 1080.64Z" stroke="white" stroke-width="0.5" stroke-miterlimit="10"/>
<path d="M21.668 1214.58L-94.9165 1117.56L157.653 1516.46L21.668 1214.58Z" stroke="white" stroke-width="0.5" stroke-miterlimit="10"/>
<path d="M-96.0978 1126.14L-94.9166 1117.56L157.653 1516.46L99.1427 1530.33L-96.0978 1126.14Z" stroke="white" stroke-width="0.5" stroke-miterlimit="10"/>
<path d="M446.857 776.418C449.187 781.244 454.996 783.268 459.834 780.936C464.656 778.605 466.679 772.791 464.349 767.949C462.019 763.123 456.21 761.099 451.372 763.431C446.534 765.779 444.511 771.593 446.857 776.418Z" fill="white"/>
<path d="M780.138 1041.51C782.468 1046.34 788.277 1048.36 793.115 1046.03C797.937 1043.7 799.96 1037.89 797.63 1033.04C795.3 1028.2 789.491 1026.18 784.653 1028.53C779.831 1030.87 777.808 1036.69 780.138 1041.51Z" fill="white"/>
<path d="M651.531 826.765C653.861 831.591 659.67 833.615 664.508 831.283C669.33 828.951 671.353 823.138 669.023 818.296C666.693 813.47 660.884 811.446 656.046 813.778C651.208 816.126 649.185 821.939 651.531 826.765Z" fill="white"/>
<path d="M1484.71 317.856C1487.04 322.682 1492.85 324.706 1497.67 322.374C1502.49 320.042 1504.53 314.229 1502.18 309.387C1499.85 304.561 1494.05 302.537 1489.21 304.869C1484.39 307.2 1482.36 313.014 1484.71 317.856Z" fill="white"/>
<path d="M1492.85 740.258C1495.18 745.083 1500.99 747.108 1505.81 744.776C1510.65 742.444 1512.65 736.63 1510.32 731.788C1507.99 726.962 1502.18 724.922 1497.35 727.27C1492.54 729.602 1490.52 735.416 1492.85 740.258Z" fill="white"/>
<path d="M1223.24 864.481C1225.57 869.307 1231.38 871.331 1236.22 868.999C1241.04 866.667 1243.06 860.854 1240.73 856.012C1238.4 851.186 1232.59 849.145 1227.75 851.494C1222.93 853.825 1220.91 859.639 1223.24 864.481Z" fill="white"/>
<path d="M1217.5 543.599C1219.83 548.425 1225.63 550.449 1230.47 548.117C1235.29 545.785 1237.32 539.972 1234.99 535.13C1232.66 530.304 1226.85 528.28 1222.01 530.611C1217.19 532.96 1215.17 538.773 1217.5 543.599Z" fill="white"/>
<path d="M946.949 833.227C949.279 838.052 955.088 840.077 959.91 837.745C964.748 835.413 966.754 829.599 964.424 824.757C962.094 819.931 956.285 817.891 951.447 820.239C946.625 822.571 944.602 828.385 946.949 833.227Z" fill="white"/>
<path d="M653.068 617.524C655.398 622.35 661.207 624.374 666.046 622.042C670.868 619.71 672.906 613.897 670.56 609.055C668.23 604.229 662.421 602.205 657.583 604.537C652.745 606.868 650.722 612.698 653.068 617.524Z" fill="white"/>
<path d="M151.327 402.809C153.657 407.635 159.466 409.659 164.304 407.327C169.126 404.995 171.148 399.182 168.818 394.34C166.488 389.514 160.679 387.474 155.841 389.822C151.003 392.17 148.98 397.983 151.327 402.809Z" fill="white"/>
<path d="M137.832 851.251C140.162 856.076 145.971 858.101 150.809 855.769C155.631 853.437 157.653 847.623 155.323 842.781C152.993 837.955 147.184 835.931 142.346 838.263C137.524 840.595 135.502 846.409 137.832 851.251Z" fill="white"/>
<path d="M335.742 469.188C338.072 474.014 343.881 476.038 348.719 473.706C353.541 471.374 355.564 465.56 353.234 460.718C350.904 455.893 345.095 453.868 340.257 456.2C335.435 458.532 333.412 464.346 335.742 469.188Z" fill="white"/>
<path d="M542.94 988.235C545.27 993.061 551.079 995.085 555.901 992.753C560.739 990.421 562.762 984.607 560.416 979.765C558.086 974.94 552.277 972.915 547.439 975.247C542.633 977.579 540.61 983.393 542.94 988.235Z" fill="white"/>
<path d="M1087.43 1001.76C1089.76 1006.58 1095.57 1008.61 1100.39 1006.27C1105.22 1003.94 1107.24 998.129 1104.91 993.287C1102.58 988.445 1096.77 986.421 1091.93 988.769C1087.12 991.117 1085.1 996.931 1087.43 1001.76Z" fill="white"/>
<path d="M197.346 1083.86C199.676 1088.69 205.485 1090.71 210.323 1088.38C215.145 1086.05 217.167 1080.23 214.837 1075.39C212.507 1070.56 206.698 1068.52 201.86 1070.87C197.022 1073.22 194.999 1079.03 197.346 1083.86Z" fill="white"/>
<path d="M790.607 1036.43L661.45 822.037L956.042 829.745L662.534 613.087" stroke="white" stroke-width="0.5" stroke-miterlimit="10"/>
<path d="M1666.36 881.986L1503.9 736.517L1231.54 863.623L956.657 830.992L1225.8 541.737L1234.91 862.003" stroke="white" stroke-width="0.5" stroke-miterlimit="10"/>
<path d="M1441.91 1075.94L1234.91 862.003L1095.09 999.813L956.042 829.745" stroke="white" stroke-width="0.5" stroke-miterlimit="10"/>
<path opacity="0.7" d="M661.45 822.037L455.595 772.192L344.496 464.945L146.569 847.008" stroke="white" stroke-width="0.5" stroke-miterlimit="10"/>
<path d="M1859.19 620.131L1502.07 732.744L1493.46 313.662L1859.19 620.131Z" stroke="white" stroke-width="0.5" stroke-miterlimit="10"/>
<path d="M662.178 618.35L661.45 822.037" stroke="white" stroke-width="0.5" stroke-miterlimit="10"/>
</g>
</g>
<defs>
<linearGradient id="paint0_linear_261_2120" x1="5.96046e-06" y1="600" x2="1733.33" y2="600" gradientUnits="userSpaceOnUse">
<stop stop-color="#00CFD0"/>
<stop offset="1" stop-color="#8DF6DA"/>
</linearGradient>
<clipPath id="clip0_261_2120">
<rect width="1600" height="1200" fill="white"/>
</clipPath>
<clipPath id="clip1_261_2120">
<rect width="1447" height="1447" fill="white"/>
</clipPath>
</defs>
</svg>
